# 3ds Max Wavefront OBJ Exporter v0.97b - (c)2007 guruware
# File Created: 30.11.2015 19:25:20

mtllib 3d-model.mtl

#
# object curved_wall_002
#

v  12.4835 -0.0000 1.1534
v  -0.5212 0.0000 2.9733
v  0.4781 0.0000 -3.2425
v  12.5979 0.0000 -5.2305
v  25.2593 -0.0000 -1.8817
v  24.4889 0.0000 -8.3040
v  36.0539 0.0000 -12.4382
v  37.6930 -0.0000 -6.1051
v  47.1987 0.0000 -17.5991
v  49.6743 -0.0000 -11.4792
v  57.8322 0.0000 -23.7448
v  61.0970 -0.0000 -17.9566
v  67.8677 0.0000 -30.8251
v  71.8598 -0.0000 -25.4796
v  77.2233 0.0000 -38.7821
v  81.8672 -0.0000 -33.9817
v  85.8226 0.0000 -47.5509
v  91.0305 -0.0000 -43.3874
v  93.5955 0.0000 -57.0601
v  99.2685 -0.0000 -53.6133
v  100.4785 0.0000 -67.2319
v  106.5080 0.0000 -64.5688
v  106.4154 0.0000 -77.9833
v  112.6850 0.0000 -76.1567
v  111.3579 0.0000 -89.2267
v  117.7446 0.0000 -88.2742
v  0.4781 91.1875 -3.2425
v  -0.5212 91.1875 2.9733
v  12.4835 91.1875 1.1534
v  12.5979 91.1875 -5.2305
v  25.2593 91.1875 -1.8817
v  24.4889 91.1875 -8.3040
v  36.0539 91.1875 -12.4382
v  37.6930 91.1875 -6.1051
v  47.1987 91.1875 -17.5991
v  49.6743 91.1875 -11.4792
v  57.8322 91.1875 -23.7448
v  61.0970 91.1875 -17.9566
v  67.8677 91.1875 -30.8251
v  71.8598 91.1875 -25.4796
v  77.2233 91.1875 -38.7821
v  81.8672 91.1875 -33.9817
v  85.8226 91.1875 -47.5509
v  91.0305 91.1875 -43.3874
v  93.5955 91.1875 -57.0601
v  99.2685 91.1875 -53.6133
v  100.4785 91.1875 -67.2319
v  106.5080 91.1875 -64.5688
v  106.4154 91.1875 -77.9833
v  112.6850 91.1875 -76.1567
v  111.3579 91.1875 -89.2267
v  117.7446 91.1875 -88.2742
# 52 vertices

vn -0.0000 -1.0000 -0.0000
vn 0.0000 1.0000 0.0000
vn -0.9873 0.0000 -0.1587
vn -0.2063 0.0000 -0.9785
vn -0.1619 0.0000 -0.9868
vn -0.2937 0.0000 -0.9559
vn -0.3788 0.0000 -0.9255
vn -0.4608 0.0000 -0.8875
vn -0.5390 0.0000 -0.8423
vn -0.6128 0.0000 -0.7902
vn -0.6816 0.0000 -0.7317
vn -0.7449 0.0000 -0.6672
vn -0.8020 0.0000 -0.5973
vn -0.8527 0.0000 -0.5224
vn -0.8963 0.0000 -0.4434
vn -0.9155 0.0000 -0.4024
vn 0.1475 0.0000 -0.9891
vn 0.9228 -0.0000 0.3853
vn 0.9036 -0.0000 0.4283
vn 0.8593 -0.0000 0.5114
vn 0.8074 -0.0000 0.5900
vn 0.7483 -0.0000 0.6633
vn 0.6826 -0.0000 0.7308
vn 0.6109 -0.0000 0.7917
vn 0.5337 -0.0000 0.8457
vn 0.4518 -0.0000 0.8921
vn 0.3658 -0.0000 0.9307
vn 0.2767 -0.0000 0.9610
vn 0.1851 -0.0000 0.9827
vn 0.1386 -0.0000 0.9903
# 30 vertex normals

vt 0.0000 0.0000 0.0000
# 1 texture coords

g curved_wall_002
usemtl skp_front_default
s off
f 1/1/1 2/1/1 3/1/1 4/1/1 
f 5/1/1 1/1/1 4/1/1 6/1/1 
f 5/1/1 6/1/1 7/1/1 8/1/1 
f 8/1/1 7/1/1 9/1/1 10/1/1 
f 10/1/1 9/1/1 11/1/1 12/1/1 
f 12/1/1 11/1/1 13/1/1 14/1/1 
f 14/1/1 13/1/1 15/1/1 16/1/1 
f 16/1/1 15/1/1 17/1/1 18/1/1 
f 18/1/1 17/1/1 19/1/1 20/1/1 
f 20/1/1 19/1/1 21/1/1 22/1/1 
f 22/1/1 21/1/1 23/1/1 24/1/1 
f 24/1/1 23/1/1 25/1/1 26/1/1 
f 27/1/2 28/1/2 29/1/2 30/1/2 
f 30/1/2 29/1/2 31/1/2 32/1/2 
f 33/1/2 32/1/2 31/1/2 34/1/2 
f 35/1/2 33/1/2 34/1/2 36/1/2 
f 37/1/2 35/1/2 36/1/2 38/1/2 
f 39/1/2 37/1/2 38/1/2 40/1/2 
f 41/1/2 39/1/2 40/1/2 42/1/2 
f 43/1/2 41/1/2 42/1/2 44/1/2 
f 45/1/2 43/1/2 44/1/2 46/1/2 
f 47/1/2 45/1/2 46/1/2 48/1/2 
f 49/1/2 47/1/2 48/1/2 50/1/2 
f 51/1/2 49/1/2 50/1/2 52/1/2 
f 2/1/3 28/1/3 27/1/3 3/1/3 
f 4/1/4 3/1/5 27/1/5 30/1/4 
f 6/1/6 4/1/4 30/1/4 32/1/6 
f 7/1/7 6/1/6 32/1/6 33/1/7 
f 9/1/8 7/1/7 33/1/7 35/1/8 
f 11/1/9 9/1/8 35/1/8 37/1/9 
f 13/1/10 11/1/9 37/1/9 39/1/10 
f 15/1/11 13/1/10 39/1/10 41/1/11 
f 17/1/12 15/1/11 41/1/11 43/1/12 
f 17/1/12 43/1/12 45/1/13 19/1/13 
f 19/1/13 45/1/13 47/1/14 21/1/14 
f 21/1/14 47/1/14 49/1/15 23/1/15 
f 23/1/15 49/1/15 51/1/16 25/1/16 
f 26/1/17 25/1/17 51/1/17 52/1/17 
f 52/1/18 50/1/19 24/1/19 26/1/18 
f 50/1/19 48/1/20 22/1/20 24/1/19 
f 48/1/20 46/1/21 20/1/21 22/1/20 
f 46/1/21 44/1/22 18/1/22 20/1/21 
f 42/1/23 16/1/23 18/1/22 44/1/22 
f 40/1/24 14/1/24 16/1/23 42/1/23 
f 38/1/25 12/1/25 14/1/24 40/1/24 
f 10/1/26 12/1/25 38/1/25 36/1/26 
f 8/1/27 10/1/26 36/1/26 34/1/27 
f 5/1/28 8/1/27 34/1/27 31/1/28 
f 1/1/29 5/1/28 31/1/28 29/1/29 
f 2/1/30 1/1/29 29/1/29 28/1/30 
# 50 polygons

#
# object curved_wall_001
#

v  -12.4953 -0.0000 -1.4262
v  0.5047 0.0000 -3.2799
v  -0.4785 0.0000 2.9385
v  -12.5931 0.0000 4.9579
v  -25.2632 -0.0000 1.6420
v  -24.4760 0.0000 8.0623
v  -36.0303 0.0000 12.2265
v  -37.6858 -0.0000 5.8977
v  -47.1616 0.0000 17.4164
v  -49.6532 -0.0000 11.3029
v  -57.7791 0.0000 23.5896
v  -61.0590 -0.0000 17.8099
v  -67.7962 0.0000 30.6959
v  -71.8022 -0.0000 25.3609
v  -77.1311 0.0000 38.6772
v  -81.7875 -0.0000 33.8889
v  -85.7077 0.0000 47.4683
v  -90.9263 -0.0000 43.3184
v  -93.4558 0.0000 56.9976
v  -99.1377 -0.0000 53.5656
v  -100.3124 0.0000 67.1873
v  -106.3488 0.0000 64.5399
v  -106.2214 0.0000 77.9541
v  -112.4957 0.0000 76.1437
v  -111.1346 0.0000 89.2103
v  -117.5238 0.0000 88.2743
v  -0.4785 91.1875 2.9385
v  0.5047 91.1875 -3.2799
v  -12.4953 91.1875 -1.4262
v  -12.5931 91.1875 4.9579
v  -25.2632 91.1875 1.6420
v  -24.4760 91.1875 8.0623
v  -36.0303 91.1875 12.2265
v  -37.6858 91.1875 5.8977
v  -47.1616 91.1875 17.4164
v  -49.6532 91.1875 11.3029
v  -57.7791 91.1875 23.5896
v  -61.0590 91.1875 17.8099
v  -67.7962 91.1875 30.6959
v  -71.8022 91.1875 25.3609
v  -77.1311 91.1875 38.6772
v  -81.7875 91.1875 33.8889
v  -85.7077 91.1875 47.4683
v  -90.9263 91.1875 43.3184
v  -93.4558 91.1875 56.9976
v  -99.1377 91.1875 53.5656
v  -100.3124 91.1875 67.1873
v  -106.3488 91.1875 64.5399
v  -106.2214 91.1875 77.9541
v  -112.4957 91.1875 76.1437
v  -111.1346 91.1875 89.2103
v  -117.5238 91.1875 88.2743
# 52 vertices

vn 0.0000 -1.0000 0.0000
vn -0.0000 1.0000 -0.0000
vn 0.9877 0.0000 0.1562
vn 0.2088 0.0000 0.9780
vn 0.1644 0.0000 0.9864
vn 0.2962 0.0000 0.9551
vn 0.3812 0.0000 0.9245
vn 0.4631 0.0000 0.8863
vn 0.5412 0.0000 0.8409
vn 0.6149 0.0000 0.7886
vn 0.6835 0.0000 0.7299
vn 0.7466 0.0000 0.6653
vn 0.8036 0.0000 0.5952
vn 0.8540 0.0000 0.5202
vn 0.8975 0.0000 0.4410
vn 0.9165 0.0000 0.4000
vn -0.1449 0.0000 0.9894
vn -0.9238 -0.0000 -0.3829
vn -0.9047 -0.0000 -0.4260
vn -0.8607 -0.0000 -0.5092
vn -0.8089 -0.0000 -0.5879
vn -0.7501 -0.0000 -0.6614
vn -0.6845 -0.0000 -0.7290
vn -0.6129 -0.0000 -0.7901
vn -0.5359 -0.0000 -0.8443
vn -0.4541 -0.0000 -0.8910
vn -0.3683 -0.0000 -0.9297
vn -0.2792 -0.0000 -0.9602
vn -0.1876 -0.0000 -0.9822
vn -0.1412 -0.0000 -0.9900
# 30 vertex normals

vt 0.0000 0.0000 0.0000
# 1 texture coords

g curved_wall_001
usemtl skp_front_default
s off
f 53/2/31 54/2/31 55/2/31 56/2/31 
f 57/2/31 53/2/31 56/2/31 58/2/31 
f 57/2/31 58/2/31 59/2/31 60/2/31 
f 60/2/31 59/2/31 61/2/31 62/2/31 
f 62/2/31 61/2/31 63/2/31 64/2/31 
f 64/2/31 63/2/31 65/2/31 66/2/31 
f 66/2/31 65/2/31 67/2/31 68/2/31 
f 68/2/31 67/2/31 69/2/31 70/2/31 
f 70/2/31 69/2/31 71/2/31 72/2/31 
f 72/2/31 71/2/31 73/2/31 74/2/31 
f 74/2/31 73/2/31 75/2/31 76/2/31 
f 76/2/31 75/2/31 77/2/31 78/2/31 
f 79/2/32 80/2/32 81/2/32 82/2/32 
f 82/2/32 81/2/32 83/2/32 84/2/32 
f 85/2/32 84/2/32 83/2/32 86/2/32 
f 87/2/32 85/2/32 86/2/32 88/2/32 
f 89/2/32 87/2/32 88/2/32 90/2/32 
f 91/2/32 89/2/32 90/2/32 92/2/32 
f 93/2/32 91/2/32 92/2/32 94/2/32 
f 95/2/32 93/2/32 94/2/32 96/2/32 
f 97/2/32 95/2/32 96/2/32 98/2/32 
f 99/2/32 97/2/32 98/2/32 100/2/32 
f 101/2/32 99/2/32 100/2/32 102/2/32 
f 103/2/32 101/2/32 102/2/32 104/2/32 
f 54/2/33 80/2/33 79/2/33 55/2/33 
f 56/2/34 55/2/35 79/2/35 82/2/34 
f 58/2/36 56/2/34 82/2/34 84/2/36 
f 59/2/37 58/2/36 84/2/36 85/2/37 
f 61/2/38 59/2/37 85/2/37 87/2/38 
f 63/2/39 61/2/38 87/2/38 89/2/39 
f 65/2/40 63/2/39 89/2/39 91/2/40 
f 67/2/41 65/2/40 91/2/40 93/2/41 
f 69/2/42 67/2/41 93/2/41 95/2/42 
f 69/2/42 95/2/42 97/2/43 71/2/43 
f 71/2/43 97/2/43 99/2/44 73/2/44 
f 73/2/44 99/2/44 101/2/45 75/2/45 
f 75/2/45 101/2/45 103/2/46 77/2/46 
f 78/2/47 77/2/47 103/2/47 104/2/47 
f 104/2/48 102/2/49 76/2/49 78/2/48 
f 102/2/49 100/2/50 74/2/50 76/2/49 
f 100/2/50 98/2/51 72/2/51 74/2/50 
f 98/2/51 96/2/52 70/2/52 72/2/51 
f 94/2/53 68/2/53 70/2/52 96/2/52 
f 92/2/54 66/2/54 68/2/53 94/2/53 
f 90/2/55 64/2/55 66/2/54 92/2/54 
f 62/2/56 64/2/55 90/2/55 88/2/56 
f 60/2/57 62/2/56 88/2/56 86/2/57 
f 57/2/58 60/2/57 86/2/57 83/2/58 
f 53/2/59 57/2/58 83/2/58 81/2/59 
f 54/2/60 53/2/59 81/2/59 80/2/60 
# 50 polygons

